<?xml version="1.0" standalone="no"?>
<!DOCTYPE svg PUBLIC "-//W3C//DTD SVG 20010904//EN"
 "http://www.w3.org/TR/2001/REC-SVG-20010904/DTD/svg10.dtd">
<svg version="1.0" xmlns="http://www.w3.org/2000/svg"
 width="103.000000pt" height="105.000000pt" viewBox="0 0 103.000000 105.000000"
 preserveAspectRatio="xMidYMid meet">

<g transform="translate(0.000000,105.000000) scale(0.100000,-0.100000)"
fill="#000000" stroke="none">
<path d="M398 1034 c-273 -66 -446 -343 -383 -612 45 -191 195 -342 386 -387
273 -64 549 110 614 387 86 363 -254 700 -617 612z m245 -205 l57 -12 0 -78
c0 -77 -1 -79 -24 -79 -20 0 -25 7 -35 45 -14 57 -55 85 -121 85 -92 0 -143
-67 -106 -138 18 -35 34 -45 110 -72 l51 -19 -108 0 -107 -1 -21 33 c-15 24
-19 44 -16 84 9 131 133 189 320 152z m81 -375 c11 -27 6 -93 -8 -128 -16 -38
-64 -78 -115 -95 -80 -26 -291 1 -291 39 0 9 -3 45 -6 79 -7 61 -7 61 19 61
23 0 28 -6 38 -46 9 -34 20 -51 43 -65 74 -46 154 -46 207 -2 25 21 29 32 29
73 0 42 -4 52 -31 74 l-31 26 70 0 c54 0 71 -3 76 -16z"/>
</g>
</svg>
