<?xml version="1.0" encoding="utf-8"?>
<!-- Generator: Adobe Illustrator 27.6.1, SVG Export Plug-In . SVG Version: 6.00 Build 0)  -->
<svg version="1.1" id="Layer_1" xmlns="http://www.w3.org/2000/svg" xmlns:xlink="http://www.w3.org/1999/xlink" x="0px" y="0px"
	 viewBox="0 0 103 105" style="enable-background:new 0 0 103 105;" xml:space="preserve">
<style type="text/css">
	.st0{fill:#FFFFFF;}
</style>
<g transform="translate(0.000000,105.000000) scale(0.100000,-0.100000)">
	<path class="st0" d="M398,1034C125,968-48,691,15,422C60,231,210,80,401,35c273-64,549,110,614,387C1101,785,761,1122,398,1034z
		 M643,829l57-12v-78c0-77-1-79-24-79c-20,0-25,7-35,45c-14,57-55,85-121,85c-92,0-143-67-106-138c18-35,34-45,110-72l51-19H467
		l-107-1l-21,33c-15,24-19,44-16,84C332,808,456,866,643,829z M724,454c11-27,6-93-8-128c-16-38-64-78-115-95c-80-26-291,1-291,39
		c0,9-3,45-6,79c-7,61-7,61,19,61c23,0,28-6,38-46c9-34,20-51,43-65c74-46,154-46,207-2c25,21,29,32,29,73c0,42-4,52-31,74l-31,26
		h70C702,470,719,467,724,454z"/>
</g>
</svg>
